<svg width="160" height="35" viewBox="0 0 160 35" fill="none" xmlns="http://www.w3.org/2000/svg">
<g clip-path="url(#clip0_104_2282)">
<path d="M7.95 22.53H15.38L16.66 25.99H1.25L10.64 4.34H3.31L2.02 0.880005H17.02L7.95 22.53Z" fill="#ED8E22"/>
<path d="M32.1401 19.21C32.1664 20.1878 31.9776 21.1594 31.587 22.0562C31.1965 22.953 30.6138 23.7531 29.8801 24.4C28.4035 25.6889 26.4884 26.3618 24.5301 26.28C22.5896 26.3058 20.7035 25.6393 19.2101 24.4C18.4928 23.7399 17.9213 22.9373 17.5321 22.0436C17.1429 21.1499 16.9447 20.1847 16.9501 19.21V7.38996C16.9214 6.41768 17.1094 5.45119 17.5002 4.56048C17.8911 3.66977 18.4752 2.87714 19.2101 2.23997C20.6693 0.937569 22.5755 0.249632 24.5301 0.319972C26.473 0.281358 28.3587 0.977807 29.8101 2.26997C30.5386 2.90766 31.1205 3.69543 31.5157 4.57922C31.911 5.463 32.1104 6.42186 32.1001 7.38996L32.1401 19.21ZM26.9201 7.38996C26.9201 4.96996 25.9201 3.88996 24.5701 3.88996C23.2201 3.88996 22.2101 4.96996 22.2101 7.38996V19.25C22.2101 21.7 23.2101 22.71 24.5701 22.71C25.9301 22.71 26.9201 21.64 26.9201 19.21V7.38996Z" fill="#ED8E22"/>
<path d="M49.4697 19.21C49.4951 20.1868 49.307 21.1573 48.9183 22.0537C48.5297 22.9502 47.95 23.7509 47.2197 24.4C45.7431 25.6889 43.828 26.3619 41.8697 26.28C39.9292 26.3059 38.0431 25.6394 36.5497 24.4C35.8342 23.7391 35.2645 22.9361 34.8771 22.0424C34.4897 21.1487 34.293 20.184 34.2997 19.21V7.39001C34.2712 6.41871 34.4582 5.45316 34.8472 4.56271C35.2362 3.67227 35.8177 2.87905 36.5497 2.24002C38.0333 0.991126 39.9104 0.306274 41.8497 0.306274C43.789 0.306274 45.666 0.991126 47.1497 2.24002C47.8782 2.87771 48.46 3.66549 48.8553 4.54927C49.2506 5.43306 49.45 6.39191 49.4397 7.36002L49.4697 19.21ZM44.2497 7.39001C44.2497 4.97001 43.2497 3.89001 41.8997 3.89001C40.5497 3.89001 39.5397 4.97001 39.5397 7.39001V19.25C39.5397 21.7 40.5397 22.71 41.8997 22.71C43.2597 22.71 44.2497 21.64 44.2497 19.21V7.39001Z" fill="#ED8E22"/>
<path d="M74.9698 25.99V7.67998C74.9406 6.70858 75.1272 5.7428 75.5163 4.85225C75.9054 3.9617 76.4872 3.16854 77.2198 2.52997C78.705 1.28031 80.5837 0.595093 82.5248 0.595093C84.4658 0.595093 86.3445 1.28031 87.8297 2.52997C88.4896 3.08455 89.0314 3.76594 89.423 4.53377C89.8147 5.30159 90.0482 6.14023 90.1097 6.99997V26H84.8998V15.62H80.1898V25.99H74.9698ZM84.8998 12.09V7.67998C84.8998 5.34998 83.8998 4.23997 82.5398 4.23997C81.1798 4.23997 80.1898 5.34998 80.1898 7.67998V12.09H84.8998Z" fill="#7D291F"/>
<path d="M104.57 13.76C105.427 13.4099 106.158 12.8094 106.668 12.0368C107.179 11.2643 107.444 10.3558 107.43 9.43005V7.61004C107.442 6.64261 107.244 5.68402 106.851 4.80018C106.457 3.91635 105.877 3.12824 105.15 2.49005C103.655 1.30103 101.763 0.725407 99.8596 0.880047H92.3096V25.88V25.94H97.4596V25.88H97.5096V15.55H99.8596C101.18 15.55 102.22 17.33 102.22 19.35V25.93H107.47V19.35C107.47 17.27 106.99 14.64 104.57 13.76ZM102.22 9.43005C102.22 11.43 101.22 11.95 99.8596 11.95H97.5096V4.44004H99.8596C101.18 4.44004 102.22 5.18004 102.22 7.61004V9.43005Z" fill="#7D291F"/>
<path d="M132 15.41V18.41C132 21.18 133.1 22.25 134.28 22.25C135.63 22.25 136.63 21.03 136.67 18.25V17.58H141.91V18.23C141.951 19.3167 141.77 20.4005 141.378 21.4149C140.986 22.4293 140.391 23.3532 139.63 24.13C138.922 24.8147 138.083 25.3506 137.164 25.7061C136.246 26.0616 135.265 26.2295 134.28 26.2C133.322 26.2225 132.368 26.0508 131.478 25.695C130.588 25.3393 129.779 24.8069 129.1 24.13C127.56 22.65 126.75 20.73 126.75 17.76V7.55998C126.82 5.66378 127.627 3.86973 129 2.55998C129.701 1.86279 130.537 1.31673 131.457 0.955534C132.378 0.594336 133.362 0.425682 134.35 0.459989C135.342 0.416822 136.332 0.581308 137.257 0.94293C138.181 1.30455 139.02 1.85533 139.72 2.55998C140.466 3.30253 141.052 4.19116 141.439 5.17024C141.826 6.14932 142.007 7.19777 141.97 8.24998V15.46L132 15.41ZM132 11.53H136.7V8.19998C136.7 5.49998 135.7 4.31999 134.32 4.31999C132.94 4.31999 132 5.49998 132 8.19998V11.53Z" fill="#7D291F"/>
<path d="M141.31 0.880005V1.50999L141.71 1.88C142.431 2.58811 143.017 3.42172 143.44 4.34H148.08V25.99H153.31V4.34H158.13L159.41 0.880005H141.31Z" fill="#7D291F"/>
<path d="M126.75 0.880005H120.83L114.86 12V11.95V0.880005H109.64V25.99H114.79V15.58L114.81 14.77L120.83 25.99H126.75L120.01 13.43L126.75 0.880005Z" fill="#7D291F"/>
<path d="M69.7504 0.880036C69.3677 0.869645 68.9892 0.962603 68.6549 1.14914C68.3205 1.33568 68.0426 1.60889 67.8504 1.94003L62.2204 10.15L56.5804 1.94003C56.3915 1.60822 56.1157 1.3342 55.7827 1.14743C55.4497 0.96066 55.0721 0.868211 54.6904 0.880036H51.6904V25.99H56.9104V10.52L62.2604 17.92L67.6104 10.52V25.99H72.8304V0.880036H69.7504Z" fill="#7D291F"/>
<path d="M4.52008 32.73V32.99C4.52008 33.99 4.04008 34.36 2.69008 34.36C1.34008 34.36 0.830078 33.9 0.830078 32.03C0.830078 30.51 1.21008 29.85 2.66008 29.85C4.11008 29.85 4.42008 30.36 4.50008 31.38H3.67007C3.67007 30.69 3.43007 30.58 2.67007 30.58C1.91007 30.58 1.67007 30.78 1.67007 32.11C1.67007 33.44 1.86007 33.63 2.67007 33.63C3.48007 33.63 3.67007 33.5 3.67007 33.01V32.73H4.52008Z" fill="#7D291F"/>
<path d="M8.24042 31.75H10.3104V32.38H8.25043V33.62H10.4404V34.31H7.44043V29.9H10.4404V30.6H8.27043L8.24042 31.75Z" fill="#7D291F"/>
<path d="M14.4304 30.64H13.1504V29.9H16.5904V30.64H15.3104V34.31H14.4504L14.4304 30.64Z" fill="#7D291F"/>
<path d="M19.49 29.9H20.31V31.62H21.7C21.8764 31.6079 22.0534 31.6354 22.2179 31.7003C22.3824 31.7652 22.5304 31.866 22.6511 31.9953C22.7718 32.1246 22.8621 32.2792 22.9156 32.4478C22.969 32.6164 22.9842 32.7948 22.96 32.97C22.9861 33.1442 22.9726 33.3221 22.9204 33.4904C22.8682 33.6587 22.7787 33.813 22.6585 33.9418C22.5383 34.0706 22.3906 34.1707 22.2263 34.2344C22.0621 34.2982 21.8856 34.324 21.71 34.31H19.46L19.49 29.9ZM21.49 33.61C22 33.61 22.18 33.49 22.18 32.98C22.18 32.47 21.98 32.32 21.49 32.32H20.31V33.61H21.49Z" fill="#7D291F"/>
<path d="M35.1304 34.31H34.3104V30.59L32.9204 34.31H32.1604L30.7704 30.62V34.31H29.9404V29.9H31.3104L32.5104 33.17L33.6804 29.9H35.1104L35.1304 34.31Z" fill="#7D291F"/>
<path d="M39.12 33.47L38.84 34.31H37.96L39.43 29.9H40.67L42.17 34.31H41.31L41.03 33.47H39.12ZM40.06 30.55L39.31 32.83H40.83L40.06 30.55Z" fill="#7D291F"/>
<path d="M45.8698 34.31H45.0098V29.9H47.9098V30.64H45.9098L45.8698 34.31Z" fill="#7D291F"/>
<path d="M51.5904 33.47L51.3104 34.31H50.4404L51.9004 29.9H53.1504L54.6404 34.31H53.7804L53.5004 33.47H51.5904ZM52.5904 30.55L51.8404 32.84H53.3104L52.5904 30.55Z" fill="#7D291F"/>
<path d="M59.2403 31.75C59.7703 31.75 60.0103 31.58 60.0103 31.15C60.0103 30.72 59.7903 30.52 59.1003 30.52C58.4103 30.52 58.1803 30.66 58.1703 31.2H57.3603C57.4303 30.13 57.8803 29.85 59.1003 29.85C60.3203 29.85 60.8103 30.21 60.8103 30.98C60.8103 31.6 60.6503 31.87 60.1903 31.98C60.3042 31.997 60.4136 32.0365 60.5121 32.0961C60.6106 32.1558 60.6963 32.2344 60.7643 32.3274C60.8322 32.4205 60.8809 32.526 60.9077 32.6381C60.9345 32.7501 60.9388 32.8663 60.9203 32.98C60.9203 33.87 60.5503 34.29 59.1003 34.29C57.9803 34.29 57.3203 34.09 57.3203 33.01V32.83H58.1203C58.1203 33.4 58.1703 33.62 59.1203 33.62C59.8903 33.62 60.1203 33.48 60.1203 32.98C60.1203 32.48 59.8703 32.32 59.3803 32.32H58.5603V31.68L59.2403 31.75Z" fill="#7D291F"/>
<path d="M67.7401 29.9V34.31H66.8901V31.4C66.8867 31.1388 66.9068 30.8777 66.9501 30.62C66.7801 30.97 66.6901 31.14 66.5901 31.34L65.0901 34.34H63.8701V29.93H64.7201V32.83C64.7235 33.0913 64.7035 33.3523 64.6601 33.61C64.8301 33.26 64.9201 33.09 65.0201 32.89L66.5201 29.89L67.7401 29.9Z" fill="#7D291F"/>
<path d="M74.6504 34.31H73.8004V32.43H71.7504V34.31H70.9004V29.9H71.7504V31.71H73.8004V29.9H74.6504V34.31Z" fill="#7D291F"/>
<path d="M79.6104 29.83C81.1004 29.83 81.5005 30.3 81.5005 31.99C81.5005 33.99 81.0904 34.35 79.6104 34.35C78.1304 34.35 77.7305 33.95 77.7305 31.99C77.7305 30.32 78.1204 29.83 79.6104 29.83ZM79.6104 33.63C80.5004 33.63 80.6104 33.45 80.6104 32.09C80.6104 30.73 80.4404 30.56 79.6104 30.56C78.7804 30.56 78.6104 30.66 78.6104 32.09C78.6104 33.52 78.7304 33.65 79.6104 33.65V33.63Z" fill="#7D291F"/>
<path d="M84.5596 29.9H86.8196C87.6096 29.9 88.0496 30.23 88.0496 31.01C88.0496 31.52 87.8696 31.9 87.4196 32.01C87.6484 32.0469 87.8535 32.1727 87.9902 32.3599C88.1269 32.5472 88.1841 32.7808 88.1496 33.01C88.1703 33.1809 88.1521 33.3542 88.0962 33.5171C88.0404 33.6799 87.9484 33.828 87.8271 33.9502C87.7059 34.0724 87.5586 34.1655 87.3962 34.2226C87.2338 34.2798 87.0606 34.2994 86.8896 34.28H84.5596V29.9ZM85.3996 31.74H86.4696C87.0096 31.74 87.2096 31.66 87.2096 31.13C87.2096 30.6 87.0196 30.6 86.6096 30.6H85.3996V31.74ZM85.3996 33.61H86.4696C87.0296 33.61 87.3096 33.47 87.3096 32.98C87.3096 32.49 87.1096 32.37 86.6196 32.37H85.3996V33.61Z" fill="#7D291F"/>
<path d="M96.8097 31.75C97.3297 31.75 97.5797 31.58 97.5797 31.15C97.5797 30.72 97.3597 30.52 96.6597 30.52C95.9597 30.52 95.7397 30.66 95.7297 31.2H94.9297C94.9997 30.13 95.4496 29.85 96.6696 29.85C97.8896 29.85 98.3797 30.21 98.3797 30.98C98.3797 31.6 98.2197 31.87 97.7497 31.98C97.9804 32.0145 98.1879 32.1393 98.3267 32.3268C98.4654 32.5143 98.524 32.7492 98.4897 32.98C98.4897 33.87 98.1097 34.29 96.6597 34.29C95.5497 34.29 94.8896 34.09 94.8896 33.01V32.83H95.6897C95.6897 33.4 95.6897 33.62 96.6897 33.62C97.4597 33.62 97.6897 33.48 97.6897 32.98C97.6897 32.48 97.4297 32.32 96.9497 32.32H96.1297V31.68L96.8097 31.75Z" fill="#7D291F"/>
<path d="M103.31 29.83C104.79 29.83 105.2 30.3 105.2 31.99C105.2 33.99 104.78 34.35 103.31 34.35C101.84 34.35 101.42 33.95 101.42 31.99C101.38 30.32 101.77 29.83 103.31 29.83ZM103.31 33.63C104.19 33.63 104.31 33.45 104.31 32.09C104.31 30.73 104.13 30.56 103.31 30.56C102.49 30.56 102.31 30.66 102.31 32.09C102.31 33.52 102.38 33.65 103.31 33.65V33.63Z" fill="#7D291F"/>
<path d="M110.03 29.83C111.52 29.83 111.93 30.3 111.93 31.99C111.93 33.99 111.51 34.35 110.03 34.35C108.55 34.35 108.15 33.95 108.15 31.99C108.15 30.32 108.54 29.83 110.03 29.83ZM110.03 33.63C110.92 33.63 111.03 33.45 111.03 32.09C111.03 30.73 110.86 30.56 110.03 30.56C109.2 30.56 109.03 30.66 109.03 32.09C109.03 33.52 109.15 33.65 110.03 33.65V33.63Z" fill="#7D291F"/>
<path d="M116.01 30.64H114.73V29.9H118.17V30.64H116.87V34.31H116.01V30.64Z" fill="#7D291F"/>
<path d="M122.9 29.83C124.38 29.83 124.79 30.3 124.79 31.99C124.79 33.99 124.38 34.35 122.9 34.35C121.42 34.35 121.01 33.95 121.01 31.99C121.01 30.32 121.4 29.83 122.9 29.83ZM122.9 33.63C123.78 33.63 123.9 33.45 123.9 32.09C123.9 30.73 123.72 30.56 122.9 30.56C122.08 30.56 121.9 30.66 121.9 32.09C121.9 33.52 122.02 33.65 122.9 33.65V33.63Z" fill="#7D291F"/>
<path d="M127.85 29.9H130.11C130.9 29.9 131.34 30.23 131.34 31.01C131.34 31.52 131.16 31.9 130.71 32.01C130.938 32.0469 131.144 32.1727 131.28 32.3599C131.417 32.5472 131.474 32.7808 131.44 33.01C131.46 33.1809 131.442 33.3542 131.386 33.5171C131.33 33.6799 131.238 33.828 131.117 33.9502C130.996 34.0724 130.849 34.1655 130.686 34.2226C130.524 34.2798 130.351 34.2994 130.18 34.28H127.85V29.9ZM128.68 31.74H129.75C130.29 31.74 130.49 31.66 130.49 31.13C130.49 30.6 130.31 30.6 129.9 30.6H128.68V31.74ZM128.68 33.61H129.75C130.31 33.61 130.59 33.47 130.59 32.98C130.59 32.49 130.4 32.37 129.91 32.37H128.68V33.61Z" fill="#7D291F"/>
<path d="M135.31 33.47L135.03 34.31H134.16L135.62 29.9H136.86L138.36 34.31H137.5L137.22 33.47H135.31ZM136.26 30.55L135.5 32.84H137.02L136.26 30.55Z" fill="#7D291F"/>
<path d="M141.18 29.9H143.06C144.13 29.9 144.7 30.14 144.7 31.35C144.7 32.56 144.31 32.83 143.13 32.83H142.02V34.28H141.18V29.9ZM143.07 32.16C143.64 32.16 143.84 32.01 143.84 31.42C143.84 30.83 143.64 30.61 143.07 30.61H142.02V32.16H143.07Z" fill="#7D291F"/>
<path d="M149.52 29.83C151 29.83 151.41 30.3 151.41 31.99C151.41 33.99 151 34.35 149.52 34.35C148.04 34.35 147.63 33.95 147.63 31.99C147.63 30.32 148.02 29.83 149.52 29.83ZM149.52 33.63C150.4 33.63 150.52 33.45 150.52 32.09C150.52 30.73 150.34 30.56 149.52 30.56C148.7 30.56 148.52 30.66 148.52 32.09C148.52 33.52 148.63 33.65 149.52 33.65V33.63Z" fill="#7D291F"/>
<path d="M154.46 29.9H156.73C157.52 29.9 157.96 30.23 157.96 31.01C157.989 31.2241 157.942 31.4417 157.827 31.6246C157.712 31.8074 157.536 31.9439 157.33 32.01C157.559 32.0469 157.764 32.1727 157.901 32.3599C158.037 32.5472 158.095 32.7808 158.06 33.01C158.081 33.1809 158.062 33.3542 158.007 33.5171C157.951 33.6799 157.859 33.828 157.738 33.9502C157.616 34.0724 157.469 34.1655 157.307 34.2226C157.144 34.2798 156.971 34.2994 156.8 34.28H154.46V29.9ZM155.3 31.74H156.37C156.91 31.74 157.11 31.66 157.11 31.13C157.11 30.6 156.93 30.6 156.51 30.6H155.31L155.3 31.74ZM155.3 33.61H156.37C156.93 33.61 157.21 33.47 157.21 32.98C157.21 32.49 157.02 32.37 156.53 32.37H155.31L155.3 33.61Z" fill="#7D291F"/>
</g>
<defs>
<clipPath id="clip0_104_2282">
<rect width="160" height="35" fill="white"/>
</clipPath>
</defs>
</svg>
