<svg width="121" height="118" viewBox="0 0 121 118" fill="none" xmlns="http://www.w3.org/2000/svg">
<path d="M60.7424 7.92929e-06C49.3198 9.49682e-06 38.1537 3.38836 28.6566 9.73639C19.1595 16.0844 11.7579 25.1069 7.38799 35.6628C3.01813 46.2188 1.87631 57.8338 4.10696 69.0389C6.3376 80.2439 11.8405 90.5358 19.9196 98.6124C27.9987 106.689 38.2912 112.188 49.495 114.413C60.6989 116.638 72.3108 115.49 82.8622 111.114C93.4136 106.737 102.43 99.3293 108.772 89.8269C115.114 80.3244 118.496 69.1543 118.49 57.7293C118.49 50.1456 116.996 42.6362 114.093 35.6301C111.191 28.6241 106.937 22.2588 101.574 16.8977C96.2113 11.5367 89.8451 7.28513 82.839 4.38575C75.833 1.48636 68.3244 -0.00396673 60.7424 7.92929e-06ZM113.226 70.4671C113.087 70.1034 112.904 69.7581 112.682 69.4385C111.048 66.9877 108.386 63.1149 106.632 60.5431L105.119 58.3646C104.652 57.5599 103.987 56.8876 103.188 56.4111C102.389 55.9347 101.481 55.6699 100.551 55.6416C99.7812 55.6589 99.0214 55.8232 98.3129 56.1256C94.0611 52.2475 88.5186 50.0904 82.7644 50.0743C79.9988 50.0315 77.2558 50.5782 74.7179 51.678C74.1431 51.9806 73.5684 52.2225 73.0239 52.4645C71.1996 52.9956 69.526 53.949 68.1386 55.2473C66.7512 56.5457 65.6889 58.1526 65.0379 59.9379C63.0381 59.6124 61.0139 59.4605 58.9879 59.484C57.2031 59.484 55.2671 59.4841 53.2101 59.7564C48.7029 60.1195 47.1601 61.481 47.1601 65.0513C47.1897 65.5046 47.1897 65.9595 47.1601 66.4129C47.0463 67.6305 47.0463 68.8561 47.1601 70.0738C47.1601 70.6789 47.1601 71.3143 47.1601 72.5548C46.8624 74.4985 47.273 76.4843 48.3169 78.1505C49.3608 79.8167 50.9686 81.0522 52.8471 81.6317C53.7883 82.0587 54.7071 82.5334 55.5999 83.0539C56.6889 83.7195 57.6871 84.4154 58.6249 85.081C61.6816 87.5199 65.301 89.1531 69.1519 89.8313C69.0936 92.6761 69.7931 95.4852 71.1786 97.9703L71.3299 98.2122C68.1818 101.781 65.5821 105.799 63.6161 110.133V110.345L63.2834 111.646H60.8029C51.4024 111.651 42.1636 109.2 34.0014 104.536C34.738 103.651 35.2716 102.615 35.5643 101.502C35.857 100.388 35.9018 99.224 35.6954 98.0912C35.3507 96.9441 34.7288 95.8997 33.8846 95.0501C33.0405 94.2005 32.0001 93.5719 30.8554 93.22L30.0689 92.8266C28.6471 92.161 25.6826 90.8298 26.7111 75.0964C33.3661 69.4082 40.6564 59.6656 41.0496 49.5297C42.5467 51.0907 44.4917 52.148 46.6156 52.5554C48.9163 53.0247 51.2557 53.2779 53.6034 53.3118H54.4504C55.0644 53.331 55.6755 53.2201 56.2436 52.9864C56.8117 52.7527 57.324 52.4015 57.7468 51.9557C58.1696 51.51 58.4934 50.9798 58.6969 50.4001C58.9003 49.8203 58.9789 49.2041 58.9274 48.5918C58.8838 47.7211 59.0288 46.8513 59.3525 46.0419C59.6762 45.2324 60.1709 44.5025 60.8029 43.9021H61.0449C64.9169 42.359 67.0949 41.179 67.6091 34.6436C67.7089 33.3347 67.9317 32.0379 68.2746 30.7707C69.8237 30.2615 71.3392 29.6553 72.8121 28.9554C74.5448 28.3515 76.1332 27.3942 77.4766 26.1442C78.8201 24.8942 79.8893 23.3787 80.6166 21.6938L81.1611 19.9692L79.5881 18.88C78.809 18.4611 77.9306 18.2624 77.0471 18.3051H75.1414C74.3851 18.3051 73.5986 18.3051 72.8424 18.3051C71.8066 18.3965 70.7648 18.2194 69.8174 17.7908C68.8648 17.157 67.8515 16.6198 66.7924 16.1871C67.0647 14.8026 67.4908 13.453 68.0629 12.1631L69.1821 9.83334L66.7621 8.95579C65.6267 8.55207 64.4276 8.35749 63.2229 8.38109C60.2403 8.54307 57.2914 9.09222 54.4504 10.0149C52.8169 8.83487 49.9129 6.98921 46.6761 5.26459C54.6801 3.1183 63.0702 2.84026 71.1987 4.45186C79.3272 6.06345 86.9768 9.52159 93.557 14.5594C100.137 19.5973 105.472 26.08 109.15 33.5074C112.828 40.9347 114.75 49.1079 114.769 57.3963C114.794 61.8001 114.275 66.1902 113.226 70.4671Z" fill="white"/>
</svg>
