<svg width="22" height="18" viewBox="0 0 22 18" fill="none" xmlns="http://www.w3.org/2000/svg">
<path d="M2.55759 7.1254C1.96841 7.94609 1.67383 8.35643 1.67383 9C1.67383 9.64357 1.96841 10.0539 2.55759 10.8746C4.25506 13.2391 7.55019 17 11.3369 17C15.1236 17 18.4188 13.2391 20.1163 10.8746C20.7054 10.0539 21 9.64357 21 9C21 8.35643 20.7054 7.94609 20.1163 7.1254C18.4188 4.7609 15.1236 1 11.3369 1C7.55019 1 4.25506 4.7609 2.55759 7.1254Z" stroke="#BDC8D3" stroke-width="1.5"/>
<path d="M8.33692 9C8.33692 10.6569 9.68007 12 11.3369 12C12.9938 12 14.3369 10.6569 14.3369 9C14.3369 7.34315 12.9938 6 11.3369 6C9.68007 6 8.33692 7.34315 8.33692 9Z" stroke="#BDC8D3" stroke-width="1.5"/>
</svg>
